<svg width="25" height="21" viewBox="0 0 25 21" fill="none" xmlns="http://www.w3.org/2000/svg">
<g clip-path="url(#clip0_3296_1730)">
<path d="M3.18548 12.0487L23.5925 12.0487C24.3698 12.0487 25 11.424 25 10.6534L25 10.2979C25 9.52726 24.3698 8.90255 23.5925 8.90255L3.18548 8.90255C2.40814 8.90255 1.77799 9.52726 1.77799 10.2979L1.77799 10.6534C1.77799 11.424 2.40814 12.0487 3.18548 12.0487Z" fill="#8C9195"/>
<path d="M11.4038 18.6166L4.30376 11.5779C3.78489 11.0635 3.78489 10.2299 4.30376 9.7155L11.8369 2.24744C12.3558 1.73306 12.3558 0.89942 11.8369 0.385042C11.3181 -0.129334 10.4772 -0.129334 9.9583 0.385042L0.388442 9.87218C-0.130419 10.3866 -0.130419 11.2202 0.388442 11.7346L9.34625 20.6142C9.81591 21.0798 10.5606 21.1301 11.0892 20.731L11.2689 20.5957C11.9092 20.1131 11.9726 19.1805 11.4038 18.6166Z" fill="#8C9195"/>
</g>
<defs>
<clipPath id="clip0_3296_1730">
<rect width="25" height="21" fill="white" transform="translate(25 21) rotate(-180)"/>
</clipPath>
</defs>
</svg>
