<svg width="11" height="11" viewBox="0 0 11 11" fill="none" xmlns="http://www.w3.org/2000/svg">
<path d="M9.08347 1H6.8385L6.11489 2.80901L7.27733 3.58397C7.41643 3.67671 7.49998 3.83282 7.49998 4C7.49871 4.04682 7.49998 4.0005 7.49998 4.0005L7.49998 4.00102L7.49997 4.00214L7.49996 4.00467L7.49989 4.01083C7.49981 4.01544 7.49969 4.02104 7.49947 4.0276C7.49905 4.0407 7.49829 4.05765 7.49692 4.07818C7.49418 4.11923 7.48902 4.17472 7.47933 4.24259C7.45995 4.37823 7.42234 4.56406 7.34932 4.78311C7.2027 5.22297 6.91461 5.79247 6.35353 6.35355C5.79245 6.91463 5.22295 7.20272 4.78309 7.34934C4.56403 7.42236 4.37821 7.45997 4.24257 7.47935C4.1747 7.48905 4.11921 7.4942 4.07816 7.49694C4.05763 7.49831 4.04068 7.49907 4.02757 7.4995C4.02102 7.49971 4.01542 7.49983 4.01081 7.49991L4.00464 7.49998L4.00212 7.5L4.001 7.5L4.00048 7.5C4.00048 7.5 3.94466 7.49694 3.99998 7.5C3.81059 7.5 3.63746 7.393 3.55277 7.22361L3.21792 6.55391L0.999979 6.92356V9.08349C2.05553 9.23614 4.90628 9.3866 7.14643 7.14645C9.38657 4.9063 9.23612 2.05555 9.08347 1ZM6.46315 4.24304L5.56019 3.64107C5.16672 3.37875 5.01079 2.87669 5.18641 2.43762L5.91002 0.628609C6.06188 0.248951 6.42959 0 6.8385 0H9.10959C9.56385 0 9.99143 0.315581 10.066 0.808451C10.2357 1.92975 10.4666 5.2405 7.85353 7.85355C5.24048 10.4666 1.92973 10.2357 0.80843 10.066C0.315559 9.99146 -2.09808e-05 9.56387 -2.09808e-05 9.10961V6.92356C-2.09808e-05 6.43472 0.353392 6.01753 0.83558 5.93717L3.05352 5.56751C3.48655 5.49534 3.91601 5.71404 4.11234 6.10669L4.28559 6.45319C4.34004 6.43982 4.40083 6.42267 4.46687 6.40066C4.77701 6.29728 5.20751 6.08537 5.64643 5.64645C6.08534 5.20753 6.29725 4.77703 6.40064 4.46689C6.42857 4.38308 6.44868 4.30772 6.46315 4.24304Z" fill="#079453"/>
</svg>
