<svg width="26" height="26" viewBox="0 0 26 26" fill="none" xmlns="http://www.w3.org/2000/svg">
<g clip-path="url(#clip0_3365_613)">
<path d="M4.875 6.5C4.42626 6.5 4.0625 6.86376 4.0625 7.3125C4.0625 7.76124 4.42626 8.125 4.875 8.125H7.3125C7.76124 8.125 8.125 7.76124 8.125 7.3125C8.125 6.86376 7.76124 6.5 7.3125 6.5H4.875Z" fill="#4F4F4F"/>
<path d="M4.0625 10.5625C4.0625 10.1138 4.42626 9.75 4.875 9.75H7.3125C7.76124 9.75 8.125 10.1138 8.125 10.5625C8.125 11.0112 7.76124 11.375 7.3125 11.375H4.875C4.42626 11.375 4.0625 11.0112 4.0625 10.5625Z" fill="#4F4F4F"/>
<path d="M4.875 13C4.42626 13 4.0625 13.3638 4.0625 13.8125C4.0625 14.2612 4.42626 14.625 4.875 14.625H7.3125C7.76124 14.625 8.125 14.2612 8.125 13.8125C8.125 13.3638 7.76124 13 7.3125 13H4.875Z" fill="#4F4F4F"/>
<path fill-rule="evenodd" clip-rule="evenodd" d="M1.13724 6.48533C1.44544 3.21182 4.25112 0.8125 7.4932 0.8125H18.497C21.7225 0.8125 24.5219 3.18811 24.8446 6.4454C25.303 11.0716 25.302 14.8716 24.8405 19.5458C24.5186 22.806 21.7188 25.1875 18.489 25.1875H7.49836C4.25356 25.1875 1.44751 22.7844 1.13969 19.509C0.704607 14.8796 0.703087 11.0966 1.13724 6.48533ZM18.489 23.5625H10.9687V2.4375H18.497C20.9353 2.4375 22.9918 4.22679 23.2275 6.60563C23.6752 11.1244 23.6745 14.8173 23.2234 19.3861C22.9881 21.7691 20.93 23.5625 18.489 23.5625ZM7.49836 23.5625H9.34375V2.4375H7.4932C5.04327 2.4375 2.98043 4.24426 2.75508 6.63768C2.33053 11.147 2.33193 14.828 2.75756 19.357C2.98274 21.7531 5.04672 23.5625 7.49836 23.5625Z" fill="#4F4F4F"/>
</g>
<defs>
<clipPath id="clip0_3365_613">
<rect width="26" height="26" fill="white"/>
</clipPath>
</defs>
</svg>
