<svg width="15" height="15" viewBox="0 0 15 15" fill="none" xmlns="http://www.w3.org/2000/svg">
<g clip-path="url(#clip0_3365_1388)">
<path d="M2.32227 5.52341C2.17191 5.52341 2.02502 5.50832 1.88281 5.48016V13.3837C1.88281 14.2749 2.60785 14.9999 3.49906 14.9999H11.501C12.3922 14.9999 13.1172 14.2749 13.1172 13.3837V5.48019C12.975 5.50835 12.8281 5.52343 12.6777 5.52343L2.32227 5.52341ZM5.3506 12.6777C5.3506 12.9204 5.15384 13.1172 4.91114 13.1172C4.66845 13.1172 4.47169 12.9204 4.47169 12.6777V6.96677C4.47169 6.72408 4.66845 6.52732 4.91114 6.52732C5.15384 6.52732 5.3506 6.72408 5.3506 6.96677V12.6777ZM7.93947 12.6777C7.93947 12.9204 7.74272 13.1172 7.50002 13.1172C7.25732 13.1172 7.06057 12.9204 7.06057 12.6777V6.96677C7.06057 6.72408 7.25732 6.52732 7.50002 6.52732C7.74272 6.52732 7.93947 6.72408 7.93947 6.96677V12.6777ZM10.5284 12.6777C10.5284 12.9204 10.3316 13.1172 10.0889 13.1172C9.8462 13.1172 9.64944 12.9204 9.64944 12.6777V6.96677C9.64944 6.72408 9.8462 6.52732 10.0889 6.52732C10.3316 6.52732 10.5284 6.72408 10.5284 6.96677V12.6777Z" fill="#C9593A"/>
<path d="M12.6777 1.88282H10.293V1.61619C10.293 0.72501 9.56796 0 8.67675 0H6.32327C5.43206 0 4.70702 0.72501 4.70702 1.61619V1.88282H2.32226C1.56086 1.88282 0.941406 2.5023 0.941406 3.2637C0.941406 4.0251 1.56086 4.64455 2.32226 4.64455H12.6777C13.4392 4.64455 14.0586 4.0251 14.0586 3.2637C14.0586 2.5023 13.4392 1.88282 12.6777 1.88282ZM5.58593 1.61619C5.58593 1.20964 5.91672 0.878906 6.32327 0.878906H8.67675C9.0833 0.878906 9.41409 1.20964 9.41409 1.61619V1.88282H5.58593V1.61619Z" fill="#C9593A"/>
</g>
<defs>
<clipPath id="clip0_3365_1388">
<rect width="15" height="15" fill="white"/>
</clipPath>
</defs>
</svg>
