<svg width="32" height="32" viewBox="0 0 32 32" fill="none" xmlns="http://www.w3.org/2000/svg">
<path d="M25.5625 0.726562H6.4375C4.9233 0.727969 3.47151 1.33011 2.40081 2.40081C1.33011 3.47151 0.727969 4.9233 0.726562 6.4375V25.5625C0.727969 27.0767 1.33011 28.5285 2.40081 29.5992C3.47151 30.6699 4.9233 31.272 6.4375 31.2734H25.5625C27.0767 31.272 28.5285 30.6699 29.5992 29.5992C30.6699 28.5285 31.272 27.0767 31.2734 25.5625V6.4375C31.272 4.9233 30.6699 3.47151 29.5992 2.40081C28.5285 1.33011 27.0767 0.727969 25.5625 0.726562ZM13.7687 22.3006C14.1928 22.3246 14.5916 22.51 14.8833 22.8187C15.1751 23.1274 15.3376 23.536 15.3376 23.9608C15.3376 24.3855 15.1751 24.7942 14.8833 25.1029C14.5916 25.4116 14.1928 25.5969 13.7687 25.6209H8.1375C7.91952 25.6212 7.70371 25.5775 7.50293 25.4926C7.30215 25.4078 7.12048 25.2834 6.96875 25.1269C6.66447 24.8179 6.4929 24.4024 6.49063 23.9688V18.3481C6.51462 17.9241 6.69999 17.5253 7.00869 17.2335C7.3174 16.9418 7.72604 16.7793 8.15078 16.7793C8.57552 16.7793 8.98416 16.9418 9.29287 17.2335C9.60157 17.5253 9.78694 17.9241 9.81094 18.3481V20.0906L12.9984 17.0625C13.3217 16.7833 13.74 16.6392 14.1667 16.6601C14.5933 16.681 14.9956 16.8653 15.29 17.1747C15.5845 17.4842 15.7485 17.8951 15.7482 18.3223C15.7478 18.7494 15.5831 19.1601 15.2881 19.4691L12.3078 22.3006H13.7687ZM25.5625 13.7209C25.5385 14.145 25.3531 14.5438 25.0444 14.8355C24.7357 15.1273 24.3271 15.2898 23.9023 15.2898C23.4776 15.2898 23.069 15.1273 22.7603 14.8355C22.4516 14.5438 22.2662 14.145 22.2422 13.7209V11.9784L19.0547 15.0066C18.7473 15.3007 18.3379 15.4644 17.9125 15.4634C17.5832 15.4578 17.2629 15.355 16.9917 15.1681C16.7205 14.9812 16.5105 14.7185 16.388 14.4127C16.2654 14.107 16.2359 13.7719 16.3029 13.4495C16.37 13.127 16.5307 12.8315 16.765 12.6L19.7453 9.76844H18.3056C17.8816 9.74444 17.4828 9.55907 17.191 9.25037C16.8993 8.94166 16.7368 8.53302 16.7368 8.10828C16.7368 7.68354 16.8993 7.2749 17.191 6.96619C17.4828 6.65749 17.8816 6.47212 18.3056 6.44813H23.9262C24.3666 6.45553 24.7872 6.6325 25.1003 6.94219C25.4053 7.26025 25.5715 7.68634 25.5625 8.12687V13.7209Z" fill="#4F4F4F"/>
</svg>
