<svg width="20" height="20" viewBox="0 0 20 20" fill="none" xmlns="http://www.w3.org/2000/svg">
<g clip-path="url(#clip0_4133_2493)">
<path d="M9.9998 9.37735C9.0308 9.37735 8.24219 10.1629 8.24219 11.1281C8.24219 12.0934 9.0308 12.8789 9.9998 12.8789C10.9688 12.8789 11.7574 12.0934 11.7574 11.1281C11.7574 10.1629 10.9688 9.37735 9.9998 9.37735ZM9.9998 11.7121C9.67667 11.7121 9.41393 11.4504 9.41393 11.1285C9.41393 10.8066 9.67667 10.5449 9.9998 10.5449C10.3229 10.5449 10.5857 10.8066 10.5857 11.1285C10.5857 11.4504 10.3229 11.7121 9.9998 11.7121Z" fill="black"/>
<path d="M18.242 9.45117V5.87539H15.3122V5.2918C15.3126 2.37383 12.9292 0 9.9998 0C7.07045 0 4.68736 2.37383 4.68736 5.2918V5.87539H1.75761V9.45117C0.747828 9.71094 0 10.6262 0 11.7121V17.6656C0 18.9527 1.05135 20.0004 2.34388 20.0004C3.43405 20.0004 4.35286 19.2551 4.61364 18.2496H15.3871C15.6479 19.2555 16.5663 20.0004 17.6569 20.0004C18.949 20.0004 20.0008 18.9531 20.0008 17.6656V11.7121C20.0008 10.6262 19.2526 9.71133 18.2432 9.45117H18.242ZM5.85949 5.2918C5.85949 3.01758 7.7171 1.16719 10.0002 1.16719C12.2833 1.16719 14.1409 3.01758 14.1409 5.2918V7.04258H5.85988V5.2918H5.85949ZM3.51562 17.6652C3.51562 18.309 2.99014 18.8324 2.34388 18.8324C1.69761 18.8324 1.17213 18.3086 1.17213 17.6652V11.7117C1.17213 11.068 1.69801 10.5445 2.34388 10.5445C2.98975 10.5445 3.51562 11.0684 3.51562 11.7117V17.6652ZM15.3126 11.7121V17.0816H4.68736V11.7121C4.68736 10.6262 3.93953 9.71133 2.92975 9.45117V7.04258H4.68736V8.20976H15.3126V7.04258H17.0703V9.45117C16.0605 9.71094 15.3126 10.6262 15.3126 11.7121ZM18.8279 17.6652C18.8279 18.309 18.302 18.8324 17.6561 18.8324C17.0103 18.8324 16.4844 18.3086 16.4844 17.6652V11.7117C16.4844 11.068 17.0099 10.5445 17.6561 10.5445C18.3024 10.5445 18.8279 11.0684 18.8279 11.7117V17.6652Z" fill="black"/>
<path d="M7.03125 4.66914H8.20299V5.83672H7.03125V4.66914Z" fill="black"/>
<path d="M11.7966 4.66914H12.9684V5.83672H11.7966V4.66914Z" fill="black"/>
</g>
<defs>
<clipPath id="clip0_4133_2493">
<rect width="20" height="20" fill="white"/>
</clipPath>
</defs>
</svg>
