<svg width="19" height="24" viewBox="0 0 19 24" fill="none" xmlns="http://www.w3.org/2000/svg">
<path fill-rule="evenodd" clip-rule="evenodd" d="M16.0667 16.375V10.5417C16.0667 6.96 14.2495 3.96167 11.05 3.16833V2.375C11.05 1.40667 10.3031 0.625 9.37781 0.625C8.45251 0.625 7.70559 1.40667 7.70559 2.375V3.16833C4.51722 3.96167 2.68892 6.94833 2.68892 10.5417V16.375L0.45929 18.7083V19.875H18.2963V18.7083L16.0667 16.375ZM9.37781 23.375C10.6041 23.375 11.6074 22.325 11.6074 21.0417H7.14818C7.14818 22.325 8.15151 23.375 9.37781 23.375ZM4.91855 17.5417H13.8371V10.5417C13.8371 7.64833 12.1537 5.29167 9.37781 5.29167C6.60192 5.29167 4.91855 7.64833 4.91855 10.5417V17.5417Z" fill="#828282"/>
</svg>
