<svg width="14" height="14" viewBox="0 0 14 14" fill="none" xmlns="http://www.w3.org/2000/svg">
<path d="M6.99992 0.333374C7.46016 0.333374 7.83325 0.70647 7.83325 1.16671V6.16671H12.8333C13.2935 6.16671 13.6666 6.53981 13.6666 7.00004C13.6666 7.46028 13.2935 7.83338 12.8333 7.83338H7.83325V12.8334C7.83325 13.2936 7.46016 13.6667 6.99992 13.6667C6.53968 13.6667 6.16658 13.2936 6.16658 12.8334V7.83338H1.16659C0.706348 7.83338 0.333252 7.46028 0.333252 7.00004C0.333252 6.53981 0.706348 6.16671 1.16659 6.16671H6.16658V1.16671C6.16658 0.70647 6.53968 0.333374 6.99992 0.333374Z" fill="#A2A29F"/>
</svg>
