<svg width="18" height="16" viewBox="0 0 18 16" fill="none" xmlns="http://www.w3.org/2000/svg">
<path d="M15.219 2.64644C14.6463 2.02164 13.612 1.98314 12.9226 2.67259L6.17259 9.42259C5.99803 9.59716 5.99803 9.81952 6.17259 9.99408C6.34715 10.1686 6.56951 10.1686 6.74408 9.99408L12.3274 4.41075C12.6528 4.08531 13.1805 4.08531 13.5059 4.41075C13.8314 4.73619 13.8314 5.26382 13.5059 5.58926L7.92259 11.1726C7.09715 11.998 5.81951 11.998 4.99408 11.1726C4.16864 10.3472 4.16864 9.06952 4.99408 8.24408L11.7441 1.49408C13.0504 0.187807 15.1731 0.145302 16.4353 1.50684C17.7288 2.81385 17.7669 4.92631 16.4107 6.18444L8.50592 14.0893C6.68049 15.9147 3.81951 15.9147 1.99408 14.0893C0.168641 12.2638 0.168641 9.40285 1.99408 7.57742L8.74408 0.827416C9.06951 0.501979 9.59715 0.501979 9.92259 0.827416C10.248 1.15285 10.248 1.68049 9.92259 2.00593L3.17259 8.75593C1.99803 9.93049 1.99803 11.7362 3.17259 12.9108C4.34715 14.0853 6.15285 14.0853 7.32741 12.9108L15.2441 4.99408C15.2526 4.98555 15.2613 4.9772 15.2702 4.96904C15.895 4.39631 15.9335 3.36205 15.2441 2.67259C15.2355 2.66406 15.2272 2.65534 15.219 2.64644Z" fill="#767572"/>
</svg>
