<svg width="17" height="18" viewBox="0 0 17 18" fill="none" xmlns="http://www.w3.org/2000/svg">
<path d="M16.8334 9C16.8334 9.31564 16.655 9.60419 16.3727 9.74535L1.37272 17.2454C1.08518 17.3891 0.740587 17.3547 0.487197 17.1568C0.233806 16.959 0.116813 16.633 0.186551 16.3192L1.81305 9L0.186552 1.68077C0.116814 1.36695 0.233807 1.041 0.487198 0.843158C0.740587 0.645316 1.08518 0.61087 1.37272 0.754639L16.3727 8.25464C16.655 8.3958 16.8334 8.68435 16.8334 9ZM3.33518 9.83333L2.19333 14.9717L12.47 9.83333L3.33518 9.83333ZM12.47 8.16666L2.19333 3.02834L3.33518 8.16666L12.47 8.16666Z" fill="white"/>
</svg>
