<svg width="32" height="32" viewBox="0 0 32 32" fill="none" xmlns="http://www.w3.org/2000/svg">
<rect y="32" width="32" height="32" rx="4" transform="rotate(-90 0 32)" fill="#32D583"/>
<rect width="20" height="20" transform="translate(6 5)" fill="#32D583"/>
<path d="M16.0001 6.66663C16.3157 6.66663 16.6043 6.84496 16.7454 7.12728L24.2454 22.1273C24.3892 22.4148 24.3548 22.7594 24.1569 23.0128C23.9591 23.2662 23.6331 23.3832 23.3193 23.3134L16.0001 21.687L8.68086 23.3134C8.36704 23.3832 8.04109 23.2662 7.84325 23.0128C7.64541 22.7594 7.61096 22.4148 7.75473 22.1273L15.2547 7.12728C15.3959 6.84496 15.6844 6.66663 16.0001 6.66663ZM16.8334 20.1648L21.9717 21.3067L16.8334 11.03V20.1648ZM15.1668 11.03L10.0284 21.3067L15.1668 20.1648V11.03Z" fill="white"/>
</svg>
