<svg width="14" height="4" viewBox="0 0 14 4" fill="none" xmlns="http://www.w3.org/2000/svg">
<path d="M6.99992 3.66671C7.92039 3.66671 8.66658 2.92052 8.66658 2.00004C8.66658 1.07957 7.92039 0.333374 6.99992 0.333374C6.07944 0.333374 5.33325 1.07957 5.33325 2.00004C5.33325 2.92052 6.07944 3.66671 6.99992 3.66671Z" fill="#A2A29F"/>
<path d="M1.99992 3.66671C2.92039 3.66671 3.66659 2.92052 3.66659 2.00004C3.66659 1.07957 2.92039 0.333374 1.99992 0.333374C1.07944 0.333374 0.333252 1.07957 0.333252 2.00004C0.333252 2.92052 1.07944 3.66671 1.99992 3.66671Z" fill="#A2A29F"/>
<path d="M11.9999 3.66671C12.9204 3.66671 13.6666 2.92052 13.6666 2.00004C13.6666 1.07957 12.9204 0.333374 11.9999 0.333374C11.0794 0.333374 10.3333 1.07957 10.3333 2.00004C10.3333 2.92052 11.0794 3.66671 11.9999 3.66671Z" fill="#A2A29F"/>
</svg>
