<svg width="18" height="17" viewBox="0 0 18 17" fill="none" xmlns="http://www.w3.org/2000/svg">
<g clip-path="url(#clip0_3214_2442)">
<path d="M17.0868 10.2329C16.5783 10.2329 16.1635 10.6558 16.1635 11.1819V14.366C16.1635 14.7752 15.8424 15.1053 15.4443 15.1053H2.56569C2.16763 15.1053 1.8465 14.7752 1.8465 14.366V11.1819C1.8465 10.6593 1.43505 10.2329 0.923248 10.2329C0.411448 10.2329 0 10.6558 0 11.1819V14.366C0 15.8205 1.14737 16.9999 2.56235 16.9999H15.4377C16.8526 16.9999 18 15.8205 18 14.366V11.1819C18 10.6593 17.5886 10.2329 17.0767 10.2329H17.0868Z" fill="white"/>
<path d="M9.6707 0.306116C9.5001 0.11012 9.25591 8.73309e-05 9.00168 8.73087e-05C8.74745 8.72865e-05 8.50326 0.11012 8.33266 0.306116L4.32522 4.86902C4.08772 5.14066 4.02751 5.52921 4.17135 5.86619C4.31519 6.19972 4.63966 6.41635 4.99424 6.41635L6.88757 6.41635L6.88757 8.86801C6.88757 9.38035 7.28899 9.79297 7.78741 9.79297L10.2193 9.79297C10.7177 9.79297 11.1191 9.38035 11.1191 8.86801L11.1191 6.41635L13.0125 6.41635C13.367 6.41635 13.6915 6.19972 13.8354 5.86619C13.9792 5.53265 13.919 5.14066 13.6815 4.86902L9.67404 0.306116L9.6707 0.306116Z" fill="white"/>
<path d="M7.78406 13.6028L10.216 13.6028C10.7129 13.6028 11.1158 13.1887 11.1158 12.6778L11.1158 11.8354C11.1158 11.3245 10.7129 10.9104 10.216 10.9104L7.78406 10.9104C7.2871 10.9104 6.88423 11.3245 6.88423 11.8354L6.88423 12.6778C6.88423 13.1887 7.2871 13.6028 7.78406 13.6028Z" fill="white"/>
</g>
<defs>
<clipPath id="clip0_3214_2442">
<rect width="18" height="17" fill="white"/>
</clipPath>
</defs>
</svg>
