<svg width="20" height="22" viewBox="0 0 20 22" fill="none" xmlns="http://www.w3.org/2000/svg">
<path fill-rule="evenodd" clip-rule="evenodd" d="M12.7686 2.19998H17.1622C18.3184 2.19998 19.2644 3.18998 19.2644 4.39998V19.8C19.2644 21.01 18.3184 22 17.1622 22H2.44664C2.29949 22 2.16284 21.989 2.0262 21.967C1.61627 21.879 1.24838 21.659 0.964577 21.362C0.775377 21.153 0.61771 20.922 0.512599 20.658C0.407488 20.394 0.344421 20.097 0.344421 19.8V4.39998C0.344421 4.09198 0.407488 3.80598 0.512599 3.55298C0.61771 3.28898 0.775377 3.04698 0.964577 2.84898C1.24838 2.55198 1.61627 2.33198 2.0262 2.24398C2.16284 2.21098 2.29949 2.19998 2.44664 2.19998H6.84029C7.28175 0.923985 8.43798 -1.52588e-05 9.80442 -1.52588e-05C11.1709 -1.52588e-05 12.3271 0.923985 12.7686 2.19998ZM8.75332 6.59998H10.8555V13.2H8.75332V6.59998ZM8.75332 15.4H10.8555V17.6H8.75332V15.4ZM9.80442 1.92497C10.2354 1.92497 10.5928 2.29897 10.5928 2.74997C10.5928 3.20097 10.2354 3.57498 9.80442 3.57498C9.37347 3.57498 9.01609 3.20097 9.01609 2.74997C9.01609 2.29897 9.37347 1.92497 9.80442 1.92497ZM2.44665 19.8H17.1622V4.39997H2.44665V19.8Z" fill="#828282"/>
</svg>
