<svg width="16" height="14" viewBox="0 0 16 14" fill="none" xmlns="http://www.w3.org/2000/svg">
<path d="M15.0816 11.3583L9.52594 1.27618C9.26276 0.798096 8.60651 0.4375 8.00006 0.4375C7.39362 0.4375 6.73737 0.798096 6.47418 1.27618L0.918518 11.3583C0.614319 11.9103 0.614319 12.47 0.919006 12.8947C1.22369 13.319 1.79987 13.5625 2.50006 13.5625H13.5001C14.2003 13.5625 14.7764 13.319 15.0811 12.8947C15.3858 12.47 15.3858 11.9103 15.0816 11.3583ZM8.00006 10.9375C7.72369 10.9375 7.50006 10.7418 7.50006 10.5C7.50006 10.2582 7.72369 10.0625 8.00006 10.0625C8.27643 10.0625 8.50006 10.2582 8.50006 10.5C8.50006 10.7418 8.27643 10.9375 8.00006 10.9375ZM8.50006 8.75C8.50006 8.99182 8.27643 9.1875 8.00006 9.1875C7.72369 9.1875 7.50006 8.99182 7.50006 8.75V4.8125C7.50006 4.57068 7.72369 4.375 8.00006 4.375C8.27643 4.375 8.50006 4.57068 8.50006 4.8125V8.75Z" fill="#C9593A"/>
</svg>
