<svg width="27" height="26" viewBox="0 0 27 26" fill="none" xmlns="http://www.w3.org/2000/svg">
<path fill-rule="evenodd" clip-rule="evenodd" d="M27 8.1C27 6.6015 25.7985 5.4 24.3 5.4H18.9V2.7C18.9 1.2015 17.6985 0 16.2 0H10.8C9.3015 0 8.1 1.2015 8.1 2.7V5.4H2.7C1.2015 5.4 0.0135 6.6015 0.0135 8.1L0 22.95C0 24.4485 1.2015 25.65 2.7 25.65H24.3C25.7985 25.65 27 24.4485 27 22.95V8.1ZM16.2001 6.15434V3.45434H10.8001V6.15434H16.2001ZM2.70012 8.85439V23.7044H24.3001V8.85439H2.70012Z" fill="#4F4F4F"/>
</svg>
